<svg width="24" height="24" viewBox="0 0 24 24" fill="none" xmlns="http://www.w3.org/2000/svg">
<path d="M15.7498 8.25C15.9487 8.25 16.1395 8.32902 16.2801 8.46967C16.4208 8.61032 16.4998 8.80109 16.4998 9C16.5003 9.53208 16.3873 10.0582 16.1683 10.5431C15.9493 11.028 15.6293 11.4606 15.2298 11.812C15.1567 11.8811 15.0704 11.9348 14.976 11.9698C14.8817 12.0048 14.7813 12.0205 14.6808 12.016C14.5803 12.0114 14.4817 11.9866 14.3909 11.9432C14.3002 11.8997 14.2191 11.8385 14.1525 11.763C14.0859 11.6876 14.0352 11.5995 14.0034 11.5041C13.9715 11.4086 13.9592 11.3077 13.9672 11.2074C13.9752 11.1071 14.0032 11.0094 14.0497 10.9202C14.0962 10.831 14.1602 10.752 14.2378 10.688C14.4777 10.4771 14.6698 10.2174 14.8012 9.92632C14.9326 9.63521 15.0003 9.31939 14.9998 9C14.9998 8.80109 15.0788 8.61032 15.2195 8.46967C15.3601 8.32902 15.5509 8.25 15.7498 8.25Z" fill="#F9F9F9"/>
<path fill-rule="evenodd" clip-rule="evenodd" d="M12 2.25C6.615 2.25 2.25 6.615 2.25 12C2.25 17.385 6.615 21.75 12 21.75C17.385 21.75 21.75 17.385 21.75 12C21.75 6.615 17.385 2.25 12 2.25ZM4.575 15.6C5.39526 17.2928 6.76936 18.6544 8.46952 19.4592C10.1697 20.264 12.0938 20.4636 13.923 20.025C13.7824 19.6505 13.531 19.3279 13.2022 19.1C12.8734 18.8722 12.483 18.7501 12.083 18.75C11.8502 18.7501 11.6248 18.6675 11.4472 18.5169C11.2696 18.3664 11.1511 18.1577 11.113 17.928L11.04 17.491C10.946 16.926 11.29 16.381 11.84 16.224L12.83 15.942C13.257 15.819 13.613 15.524 13.812 15.126L13.848 15.053C13.951 14.8469 14.1015 14.6683 14.2871 14.5319C14.4727 14.3954 14.6881 14.3051 14.9154 14.2683C15.1428 14.2314 15.3757 14.2492 15.5949 14.3201C15.8141 14.391 16.0133 14.513 16.176 14.676L16.5 15H17.128C17.5349 14.9999 17.9342 15.1102 18.2834 15.319C18.6326 15.5279 18.9186 15.8275 19.111 16.186C19.8158 14.9888 20.2069 13.633 20.248 12.2444C20.289 10.8557 19.9787 9.4792 19.3459 8.24245C18.7131 7.0057 17.7782 5.94879 16.6279 5.16974C15.4776 4.39069 14.1493 3.91473 12.766 3.786C12.81 4.048 12.946 4.289 13.155 4.462L14.223 5.352C14.665 5.721 14.758 6.362 14.439 6.842L13.929 7.608C13.6513 8.02421 13.2427 8.33598 12.768 8.494L12.625 8.542C12.4636 8.59595 12.3169 8.68637 12.1961 8.80623C12.0754 8.92609 11.9839 9.07218 11.9288 9.23313C11.8736 9.39409 11.8563 9.56559 11.8782 9.73431C11.9001 9.90304 11.9606 10.0644 12.055 10.206C12.142 10.3367 12.2002 10.4845 12.2258 10.6394C12.2514 10.7944 12.2438 10.953 12.2034 11.1048C12.163 11.2565 12.0908 11.398 11.9916 11.5198C11.8924 11.6415 11.7685 11.7408 11.628 11.811L9 13.125L9.423 14.184C9.50831 14.3991 9.51272 14.6378 9.4354 14.8559C9.35809 15.074 9.2043 15.2566 9.00256 15.37C8.80082 15.4833 8.56483 15.5196 8.33836 15.4722C8.11188 15.4247 7.9103 15.2968 7.771 15.112L7.092 14.206C6.97692 14.0526 6.82456 13.9312 6.64938 13.8533C6.4742 13.7754 6.28201 13.7436 6.09106 13.7608C5.90011 13.778 5.71673 13.8438 5.55833 13.9518C5.39993 14.0598 5.27176 14.2065 5.186 14.378L4.575 15.6Z" fill="#F9F9F9"/>
</svg>
