<svg width="109" height="109" viewBox="0 0 109 109" fill="none" xmlns="http://www.w3.org/2000/svg">
<g clip-path="url(#clip0_1867_1580)">
<mask id="mask0_1867_1580" style="mask-type:luminance" maskUnits="userSpaceOnUse" x="0" y="0" width="109" height="109">
<path d="M109 0H0V109H109V0Z" fill="white"/>
</mask>
<g mask="url(#mask0_1867_1580)">
<path d="M98.6447 66.49L91.2763 54.2384L83.9297 66.49H87.8537L83.9297 73.03H98.6447L94.7207 66.49H98.6447Z" fill="#BAE6FD" stroke="#0F5DA7" stroke-linecap="round" stroke-linejoin="round"/>
<path d="M24.5251 79.57L17.1567 67.3184L9.81006 79.57H13.7341L9.81006 86.11H24.5251L20.6011 79.57H24.5251Z" fill="#BAE6FD" stroke="#0F5DA7" stroke-linecap="round" stroke-linejoin="round"/>
<path d="M42.3791 24.961C36.9291 23.1734 32.9615 23.0208 27.4025 26.7486C21.8217 30.4546 16.2409 26.7486 13.9955 25.506L13.8647 25.3752L23.7183 15.5216C26.2689 12.971 30.4109 12.971 32.9615 15.5216L42.3791 24.961Z" fill="#BAE6FD" stroke="#0F5DA7" stroke-linecap="round" stroke-linejoin="round"/>
<path d="M46.8914 29.4518L39.8282 36.4714C37.2994 37.496 36.035 39.7414 35.49 40.4826C33.9858 39.5888 32.2636 39.0002 30.3888 38.8912C28.5358 38.804 26.77 39.1964 25.1568 39.9594C22.8896 35.97 18.813 35.752 18.2462 35.7084C16.6984 35.6212 15.216 35.97 13.9516 36.624C13.9516 36.624 13.9298 36.624 13.9298 36.6458C12.9488 37.1472 12.0986 37.8448 11.3574 38.6732C10.0276 38.0628 8.58882 37.6922 7.06282 37.5832C6.58322 37.5614 5.90742 37.5832 5.10082 37.6268C3.96722 37.6704 2.61562 37.7794 1.30762 37.932L13.8644 25.3752L13.9952 25.506C16.2406 26.7486 21.8214 30.4546 27.4022 26.7486C32.9612 23.0208 36.9288 23.1734 42.3788 24.961L46.8914 29.4518Z" fill="#F5F5F5" stroke="#0F5DA7" stroke-miterlimit="10"/>
<path d="M50.1398 32.7L46.8916 29.4518" stroke="#2F2F2F" stroke-miterlimit="10" stroke-linecap="round"/>
<path d="M89.0309 26.7486C88.6385 27.25 88.3551 27.5552 88.3551 27.5552C88.3551 27.5552 84.1041 31.9152 79.3081 25.7458C74.6647 19.7944 69.7597 18.4646 65.5741 20.5574C62.2387 22.236 58.8815 23.9146 56.4617 21.4294C56.4617 21.4294 56.2219 21.0152 55.9385 20.4048L66.4897 9.89717C68.0593 8.32757 70.6099 8.32757 72.1795 9.89717L89.0309 26.7486Z" fill="#BAE6FD" stroke="#0F5DA7" stroke-linecap="round" stroke-linejoin="round"/>
<path d="M101.196 39.0219C99.5388 39.8721 98.3834 41.0493 97.5332 41.8123C95.702 40.9403 93.5874 40.5915 91.451 40.9185C87.6578 41.4853 84.6494 43.9705 83.2106 47.2405C82.949 47.8291 82.1642 47.8509 81.859 47.2841C79.8752 43.7307 76.1692 41.2455 71.7874 41.0275C69.3458 40.8749 66.9914 41.5289 65.0294 42.6625C63.1546 41.3109 60.8874 40.3517 58.424 40.3299C53.41 40.3081 50.467 42.7715 50.467 42.7715C50.467 42.7715 49.05 35.9481 42.51 35.9481C41.4854 35.9481 40.5916 36.1443 39.8286 36.4495L46.8918 29.4299L55.9388 20.3829C56.2222 20.9933 56.462 21.4075 56.462 21.4075C58.8818 23.8927 62.239 22.2141 65.5744 20.5355C69.76 18.4427 74.665 19.7725 79.3084 25.7239C84.1044 31.8933 88.3554 27.5333 88.3554 27.5333C88.3554 27.5333 88.6388 27.2281 89.0312 26.7267L101.087 38.7821L101.196 39.0219Z" fill="#F5F5F5" stroke="#0F5DA7" stroke-miterlimit="10"/>
<path d="M105.73 103.55H88.29" stroke="#0F5DA7" stroke-miterlimit="10" stroke-linecap="round"/>
<path d="M44.6899 103.55H31.6099" stroke="#0F5DA7" stroke-miterlimit="10" stroke-linecap="round"/>
<path d="M3.27002 103.55H22.89" stroke="#0F5DA7" stroke-miterlimit="10" stroke-linecap="round"/>
<path d="M46.8701 14.17C50.482 14.17 53.4101 11.2419 53.4101 7.62997C53.4101 4.01802 50.482 1.08997 46.8701 1.08997C43.2581 1.08997 40.3301 4.01802 40.3301 7.62997C40.3301 11.2419 43.2581 14.17 46.8701 14.17Z" fill="#F5F5F5" stroke="#0F5DA7" stroke-miterlimit="10"/>
<path d="M88.2898 103.55H44.6898C68.6698 92.65 53.497 82.6874 35.9698 68.67C28.8412 62.9802 28.2526 56.353 30.498 51.23H37.6484C37.1034 56.3748 40.635 62.9802 53.4098 68.67C69.847 75.973 101.37 88.29 88.2898 103.55Z" fill="#BAE6FD" stroke="#0F5DA7" stroke-linecap="round" stroke-linejoin="round"/>
<path d="M105.73 51.23H37.6484" stroke="#0F5DA7" stroke-miterlimit="10" stroke-linecap="round"/>
<path d="M30.498 51.23H1.08984" stroke="#0F5DA7" stroke-miterlimit="10" stroke-linecap="round"/>
<path d="M90.4697 81.7499V68.6699" stroke="#0F5DA7" stroke-miterlimit="10" stroke-linecap="round"/>
<path d="M16.3496 94.83V81.75" stroke="#0F5DA7" stroke-miterlimit="10" stroke-linecap="round"/>
</g>
</g>
<defs>
<clipPath id="clip0_1867_1580">
<rect width="109" height="109" fill="white"/>
</clipPath>
</defs>
</svg>
