<svg width="20" height="20" viewBox="0 0 20 20" fill="none" xmlns="http://www.w3.org/2000/svg">
<path fill-rule="evenodd" clip-rule="evenodd" d="M0 2.85714C0 2.09938 0.30102 1.37266 0.836838 0.836838C1.37266 0.30102 2.09938 0 2.85714 0H4.16381C4.98286 0 5.69714 0.558095 5.89619 1.35238L6.94857 5.56476C7.03385 5.90571 7.01663 6.26425 6.89905 6.59545C6.78148 6.92666 6.56879 7.2158 6.28762 7.42667L5.05619 8.35048C4.92762 8.44667 4.9 8.58762 4.93619 8.68571C5.47369 10.1475 6.32247 11.475 7.42376 12.5762C8.52504 13.6775 9.85252 14.5263 11.3143 15.0638C11.4124 15.1 11.5524 15.0724 11.6495 14.9438L12.5733 13.7124C12.7842 13.4312 13.0733 13.2185 13.4045 13.1009C13.7358 12.9834 14.0943 12.9661 14.4352 13.0514L18.6476 14.1038C19.4419 14.3029 20 15.0171 20 15.8371V17.1429C20 17.9006 19.699 18.6273 19.1632 19.1632C18.6273 19.699 17.9006 20 17.1429 20H15C6.71619 20 0 13.2838 0 5V2.85714Z" fill="#F6F8FF"/>
</svg>
