<svg width="20" height="20" viewBox="0 0 20 20" fill="none" xmlns="http://www.w3.org/2000/svg">
<path fill-rule="evenodd" clip-rule="evenodd" d="M1.6975 9.4111C6.8654 7.15953 10.3115 5.67516 12.0357 4.95798C16.9588 2.9103 17.9818 2.5546 18.6486 2.54285C18.7952 2.54027 19.1231 2.57661 19.3355 2.74895C19.5148 2.89448 19.5642 3.09106 19.5878 3.22903C19.6114 3.36701 19.6408 3.68131 19.6174 3.9269C19.3507 6.73002 18.1963 13.5325 17.609 16.672C17.3605 18.0005 16.8712 18.4459 16.3975 18.4895C15.368 18.5842 14.5863 17.8091 13.5892 17.1555C12.029 16.1328 11.1475 15.4961 9.63306 14.4981C7.88281 13.3447 9.01742 12.7108 10.0149 11.6748C10.2759 11.4036 14.8118 7.27794 14.8996 6.90368C14.9105 6.85687 14.9207 6.68239 14.8171 6.59026C14.7134 6.49813 14.5604 6.52963 14.45 6.55469C14.2936 6.59021 11.801 8.23766 6.97251 11.4971C6.26502 11.9829 5.6242 12.2196 5.05004 12.2072C4.41708 12.1935 3.19952 11.8493 2.29439 11.5551C1.1842 11.1942 0.301855 11.0034 0.378687 10.3905C0.418707 10.0713 0.85831 9.74482 1.6975 9.4111Z" fill="#F9F9F9"/>
</svg>
