<svg width="20" height="20" viewBox="0 0 20 20" fill="none" xmlns="http://www.w3.org/2000/svg">
<g clip-path="url(#clip0_1628_1062)">
<path d="M0 20L1.41356 14.8669C0.539637 13.3603 0.0811843 11.654 0.0859598 9.9097C0.0859598 4.44392 4.55587 0 10.043 0C12.7077 0 15.2101 1.03137 17.0869 2.90399C18.9685 4.77662 20.0048 7.26711 20 9.91445C20 15.3802 15.5301 19.8242 10.0382 19.8242H10.0334C8.36676 19.8242 6.72874 19.4059 5.2722 18.6169L0 20ZM5.52531 16.8251L5.82617 17.0057C7.09646 17.7567 8.553 18.1511 10.0382 18.1559H10.043C14.6036 18.1559 18.319 14.4629 18.319 9.9192C18.319 7.71863 17.4594 5.65114 15.8978 4.09221C14.3362 2.53327 12.254 1.67776 10.043 1.67776C5.48233 1.673 1.76695 5.36597 1.76695 9.9097C1.76695 11.4639 2.20153 12.98 3.03247 14.2918L3.22827 14.6055L2.39255 17.6426L5.52531 16.8251Z" fill="url(#paint0_linear_1628_1062)"/>
<path fill-rule="evenodd" clip-rule="evenodd" d="M7.55459 5.76527C7.36835 5.35178 7.17255 5.34227 6.99586 5.33752C6.85259 5.33276 6.68545 5.33276 6.5183 5.33276C6.35116 5.33276 6.08373 5.39455 5.8545 5.6417C5.62527 5.88885 4.98535 6.48771 4.98535 7.70919C4.98535 8.92592 5.87838 10.1046 6.00254 10.271C6.12671 10.4373 7.72651 13.0181 10.2528 14.0115C12.354 14.8385 12.7838 14.6721 13.2375 14.6293C13.6912 14.5866 14.7084 14.0305 14.9185 13.4506C15.1238 12.8708 15.1238 12.3765 15.0618 12.2719C14.9997 12.1674 14.8325 12.1056 14.5842 11.982C14.3359 11.8584 13.1133 11.2596 12.8841 11.174C12.6549 11.0932 12.4877 11.0504 12.3254 11.2976C12.1582 11.5447 11.6807 12.1008 11.5374 12.2672C11.3941 12.4335 11.2461 12.4525 10.9978 12.329C10.7494 12.2054 9.94714 11.944 8.99681 11.098C8.2566 10.4421 7.75517 9.62934 7.6119 9.38219C7.46863 9.13505 7.59757 9.00197 7.72174 8.87839C7.83158 8.76908 7.97007 8.58847 8.09423 8.44588C8.2184 8.3033 8.26138 8.19873 8.34256 8.03238C8.42374 7.86603 8.38554 7.72345 8.32346 7.59987C8.26138 7.48105 7.77427 6.25482 7.55459 5.76527Z" fill="white"/>
</g>
<defs>
<linearGradient id="paint0_linear_1628_1062" x1="10.0019" y1="19.9981" x2="10.0019" y2="0" gradientUnits="userSpaceOnUse">
<stop stop-color="#F9F9F9"/>
<stop offset="1" stop-color="white"/>
</linearGradient>
<clipPath id="clip0_1628_1062">
<rect width="20" height="20" fill="white"/>
</clipPath>
</defs>
</svg>
